<?xml version="1.0" encoding="UTF-8"?><svg id="Layer_1" xmlns="http://www.w3.org/2000/svg" viewBox="0 0 362.47 355.37"><defs><style>.cls-1{fill:#f7a151;}.cls-2{fill:#f7e2a9;}.cls-3{fill:#030305;}.cls-4{fill:#0068a8;}.cls-5{fill:#ebb380;}.cls-6{fill:#e96d4b;}.cls-7{fill:#e49a55;}.cls-8{fill:#e9ce8d;}.cls-9{fill:#fff;}.cls-10{fill:#f1f1ff;}.cls-11{fill:#7f4f54;}.cls-12{fill:#989898;}.cls-13{fill:#ae7420;}.cls-14{fill:#d8a92f;}.cls-15{fill:#c0c1e3;}.cls-16,.cls-17{fill:#d0aa48;}.cls-18{fill:#c88d27;}.cls-19{fill:#d08b52;}.cls-20{fill:#dbdcef;}.cls-21{fill:#dc811f;}.cls-22{fill:#e1bb54;}.cls-23{fill:#102145;}.cls-24,.cls-25,.cls-26,.cls-27,.cls-28{fill:#1f1e3b;}.cls-29{fill:#1f1d3b;}.cls-30{fill:#142143;}.cls-31{fill:#142c5c;}.cls-32{fill:#1a7080;}.cls-33{fill:#0f2047;}.cls-34{fill:#181a3f;}.cls-35{fill:#1a2c59;}.cls-36{fill:#353587;}.cls-37{fill:#353289;}.cls-38{fill:#5d5ea0;}.cls-39{fill:#767676;}.cls-40,.cls-41{fill:#307a89;}.cls-42{fill:#273d69;}.cls-25{opacity:.15;}.cls-26{opacity:.14;}.cls-27,.cls-17{opacity:.18;}.cls-41,.cls-28{opacity:.28;}</style></defs><path class="cls-10" d="M13.37,146.59C-.71,216.67,47.98,280.9,100.03,308.34c43.13,22.73,108.48,30.66,145.56-.27,23.32-19.45,10.96-33.83,44.95-85.73,29.43-44.92,52.79-55.68,52.87-84.76,.06-23.77-15.49-41.48-25.43-52.8C278.81,40.17,209.41-.18,137.28,21.64c-16.88,5.11-107.97,45.67-123.9,124.94Z"/><g><g><g><g><g><path class="cls-40" d="M22.72,242.16H122.72c6,0,10.49-5.51,9.29-11.4l-15.17-73.79c-1.28-6.21-6.74-10.66-13.07-10.66H17.99l4.73,95.84Z"/><path class="cls-40" d="M22.29,242.18l-4.73-95.84c0-.12,.04-.23,.12-.32,.08-.09,.19-.13,.31-.13H103.77c6.5,0,12.18,4.63,13.49,11l15.17,73.79c.6,2.93-.14,5.94-2.03,8.26-1.89,2.32-4.69,3.65-7.68,3.65H22.72c-.23,0-.42-.18-.43-.41Zm-3.85-95.43l4.69,94.98H122.72c2.73,0,5.29-1.21,7.01-3.33,1.73-2.12,2.4-4.87,1.85-7.55l-15.17-73.79c-1.23-5.98-6.55-10.32-12.65-10.32H18.44Z"/></g><path class="cls-32" d="M9.91,242.59H29.32c6,0,10.49-5.57,9.29-11.52l-16.71-82.15c-.38-1.87-2.01-3.21-3.89-3.21h-4.99c-2.07,0-3.79,1.61-3.96,3.69L2.22,234.15c-.37,4.55,3.18,8.44,7.7,8.44Z"/><path class="cls-32" d="M89.87,195.71c-.57,.75-1.44,1.18-2.38,1.18h-15.51c-1.74,0-3.25-1.18-3.65-2.88l-2.2-8.85c-.03-.13,0-.26,.08-.37s.2-.17,.34-.17h21.12c.19,0,.36,.13,.41,.32l2.27,8.17c.25,.9,.07,1.85-.5,2.6Z"/><g><path class="cls-18" d="M84.01,142.97h6.49c1.75,0,3.18,1.42,3.18,3.18h-12.85c0-1.76,1.42-3.18,3.18-3.18Z"/><path class="cls-18" d="M31.97,142.97h6.49c1.75,0,3.18,1.42,3.18,3.18h-12.85c0-1.76,1.42-3.18,3.18-3.18Z"/><path class="cls-22" d="M33.66,143.23l-1.05-6.22c-.74-4.41,2.23-7.98,6.64-7.98h38.94c4.41,0,8.58,3.57,9.32,7.98l1.05,6.22h-2.98l-.81-4.84c-.58-3.43-3.83-6.21-7.26-6.21H41c-3.43,0-5.74,2.78-5.17,6.21l.81,4.84h-2.98Z"/><path class="cls-18" d="M41.19,126.45h34.2c1.38,0,2.68,1.12,2.92,2.5l.5,2.99c.23,1.38-.7,2.5-2.08,2.5H42.53c-1.38,0-2.68-1.12-2.92-2.5l-.5-2.99c-.23-1.38,.7-2.5,2.08-2.5Z"/></g><path class="cls-32" d="M22.61,145.69l6.88,34.52c.59,2.95,3.17,5.07,6.18,5.07H115.16c3.97,0,6.94-3.62,6.18-7.51l-3.86-19.69s-.44-12.22-15.66-12.39H22.61Z"/></g><g><path d="M30.03,144.88s-5.97,2.22-8.31,.35c-2.34-1.87,3.63-5.03,5.03-4.8,1.4,.23,3.28,4.45,3.28,4.45Z"/><g><g><path class="cls-9" d="M47.84,136.18s15.25,2.72,26.24,14.25c2.77,2.91,3.75,7.1,2.56,10.94-2.44,7.88-7.76,22.27-16.64,33.1l-6.79-5.85s1.64-13.58,6.08-22.01c4.45-8.43-21.53-26.69-21.53-26.69l10.06-3.75Z"/><path class="cls-33" d="M77.06,161.5c-2.39,7.73-7.74,22.31-16.72,33.24-.08,.09-.18,.15-.3,.16-.01,0-.02,0-.03,0-.1,0-.2-.04-.28-.1l-6.79-5.85c-.11-.09-.16-.24-.14-.38,.01-.14,1.7-13.75,6.13-22.15,4.22-8-21.14-25.96-21.39-26.14-.13-.09-.2-.25-.18-.41,.02-.16,.13-.3,.28-.35l10.06-3.75c.07-.02,.15-.03,.23-.02,.15,.03,15.52,2.88,26.48,14.38,2.87,3.02,3.9,7.37,2.66,11.36Z"/></g><g><path class="cls-9" d="M79.67,194.94l-7.96,2.34s-14.51-30.67-18.72-35.12c-4.21-4.45-12.4-11.71-21.06-14.28-8.66-2.58-8.66-9.13-8.66-9.13l14.74-4.21s20.59,8.9,27.38,18.96c6.79,10.07,14.27,41.44,14.27,41.44Z"/><path class="cls-42" d="M79.79,195.35l-7.96,2.34s-.08,.02-.12,.02c-.16,0-.31-.09-.39-.24-.14-.31-14.53-30.66-18.64-35-2.46-2.6-11.24-11.3-20.87-14.17-8.86-2.64-8.96-9.47-8.96-9.54,0-.19,.13-.36,.31-.41l14.75-4.21c.09-.03,.2-.02,.28,.02,.85,.37,20.79,9.06,27.57,19.12,6.75,10.02,14.03,40.3,14.33,41.58,.05,.22-.08,.45-.3,.51Z"/></g></g><g><path d="M11.34,114.64c3.98-7.96,10.53-9.13,10.53-9.13l11.23-.94c3.51-.24,7.25,1.93,8.63,5.17l10.32,24.09s-2.11,5.62-11.47,6.55c-9.36,.94-15.8,.35-18.84,4.1-2.01,2.47-1.94-14-.79-27.03l-9.62-2.82Z"/><g><path class="cls-9" d="M41.29,135.71l-5.15-2.34-3.98,1.64s-21.34-2.7-11.8-17.98c.04-.07-7.5-1.59-7.5-1.59,0,0-8.7,20.74,18.83,21.21,0,0,1.4,.47,3.28-.47s5.15,.94,6.32-.47Z"/><path class="cls-13" d="M41.62,135.99c-.78,.93-2.17,.73-3.52,.53-1.07-.16-2.18-.32-2.93,.05-1,.5-1.89,.63-2.53,.63-.5,0-.86-.08-1-.12-9.2-.16-15.41-2.6-18.44-7.25-4.1-6.29-.86-14.22-.72-14.55,.08-.19,.28-.3,.48-.26q7.69,1.55,7.81,1.84c.06,.13,.05,.28-.03,.4-2.45,3.91-3.01,7.3-1.7,10.08,2.63,5.53,11.96,7.07,13.08,7.23l3.87-1.59c.11-.05,.23-.05,.34,0l5.15,2.34c.12,.05,.21,.16,.24,.29,.03,.13,0,.27-.09,.37Z"/></g><path d="M21.39,118.51l-10.45-2.96,.4-.91s1.19-.91,1.42-.91,6.14-.23,6.14-.23l3.64,1.14-1.14,3.86Z"/></g><g><path class="cls-12" d="M61,137.25h-20.3l15.05-23.15c.47-.72,1.29-1.16,2.17-1.16h16.47c1.05,0,1.68,1.12,1.12,1.98l-14.52,22.33Z"/><g><path class="cls-9" d="M65.05,121.06c-.66,1.01-2.08,1.84-3.17,1.84s-1.44-.82-.78-1.84c.66-1.01,2.08-1.84,3.17-1.84s1.44,.82,.78,1.84Z"/><path d="M60.49,122.63c-.27-.49-.17-1.15,.25-1.8,.74-1.14,2.29-2.03,3.53-2.03,.65,0,1.15,.25,1.39,.7,.27,.49,.17,1.15-.25,1.8-.74,1.14-2.29,2.03-3.53,2.03-.65,0-1.15-.25-1.39-.7Zm.97-1.34c-.25,.38-.33,.72-.22,.93,.12,.22,.45,.25,.64,.25,.94,0,2.23-.75,2.81-1.64,.25-.38,.33-.72,.22-.93-.12-.22-.45-.25-.64-.25-.94,0-2.23,.75-2.81,1.64Z"/></g><path class="cls-39" d="M26.85,137.1H61.07v.49c0,.77-.63,1.4-1.4,1.4H28.25c-.77,0-1.4-.63-1.4-1.4v-.49h0Z"/></g><g><path class="cls-8" d="M21.72,49.57c-8.59-2.71-19.7,9.62-17.47,19.76,.62,2.8-.07,7.03,3,8.58,5.44,2.74,8.86-.58,10.25,1.63,1.21,1.91-3.09,4.67-2.57,8.66,.77,5.94,11.43,8.8,12.64,9.13,.9,.24,13.62,3.49,19.66-3.28,1.45-1.63,3.36-4.79,2.34-6.79-.97-1.91-3.96-1.5-4.68-3.51-.63-1.74,1.37-2.72,1.17-4.68-.39-3.79-8.22-3.98-9.13-7.96-.73-3.18,3.82-5.05,3.04-8.19-.63-2.54-3.9-2.61-9.13-5.85-6.26-3.89-5.87-6.46-9.13-7.49Z"/><path class="cls-14" d="M19.76,50.73C11.17,48.02,.06,60.35,2.3,70.5c.62,2.8-.07,7.03,3,8.58,5.44,2.74,8.86-.58,10.25,1.63,1.21,1.91-3.09,4.67-2.57,8.66,.77,5.94,11.43,8.8,12.64,9.13,.9,.24,13.62,3.49,19.66-3.28,1.45-1.63,3.36-4.79,2.34-6.79-.97-1.91-3.96-1.5-4.68-3.51-.63-1.74,1.37-2.72,1.17-4.68-.39-3.79-8.22-3.98-9.13-7.96-.73-3.18,3.82-5.05,3.04-8.19-.63-2.54-3.9-2.61-9.13-5.85-6.26-3.89-5.87-6.46-9.13-7.49Z"/><g><path class="cls-13" d="M29.36,103.88c.21-.1,3.02-3.43,4.67-5.39-.12-.54-.11-.72-.06-1.54,0,0-.85-.86-.51-1.97,.4-1.29,1.62-.25,1.62-.25,0,0,.57-.99,2.7,.72,2.13,1.71,4.39-.37,4.39-.37,0,0,0,1.28-1.13,2.84-.62,.86-.73,2-.76,3.06l-1.2-.17c-.66,.78-1.15,1.16-2.05,1.54,0,0-.71-.13-1.46-.75l-1.31,2.99,1.34,.7s.3,1.87-3.21,2.34c-3.51,.47-6.32-2.34-6.32-2.34,0,0,1.87-.7,3.28-1.4Z"/><path class="cls-13" d="M25.78,105.58c-.1-.1-.15-.25-.12-.39s.13-.26,.27-.31c.02,0,1.83-.69,3.2-1.37,.14-.12,.84-.86,4.44-5.14-.08-.42-.07-.67-.04-1.28-.27-.34-.81-1.19-.48-2.24,.19-.61,.54-.83,.81-.91,.45-.13,.9,.06,1.2,.24,.1-.06,.24-.12,.4-.15,.68-.13,1.55,.23,2.6,1.07,1.82,1.46,3.75-.28,3.83-.35,.13-.12,.31-.15,.46-.08,.16,.07,.26,.22,.26,.39,0,.06-.02,1.44-1.21,3.09-.55,.75-.65,1.8-.68,2.82,0,.12-.06,.24-.15,.32-.09,.08-.22,.11-.34,.1l-.96-.14c-.65,.73-1.19,1.12-2.06,1.47-.08,.03-.16,.04-.24,.03-.03,0-.56-.11-1.2-.51l-.94,2.13,.98,.52c.12,.06,.2,.18,.22,.31,.01,.07,.1,.7-.41,1.37-.57,.76-1.63,1.26-3.17,1.46-.29,.04-.58,.06-.86,.06-3.26,0-5.71-2.41-5.82-2.52Zm8.29-.63c-.2-.1-.28-.35-.19-.55l1.31-2.99c.05-.12,.16-.21,.29-.24,.13-.03,.27,0,.37,.09,.48,.39,.94,.56,1.15,.62,.73-.32,1.16-.65,1.76-1.36,.1-.11,.24-.17,.39-.15l.73,.1c.06-1,.23-2,.82-2.82,.44-.61,.7-1.18,.85-1.63-1.06,.57-2.61,.88-4.03-.25-1.06-.85-1.63-.93-1.87-.91-.14,.02-.2,.07-.2,.07-.05,.13-.15,.19-.28,.23-.13,.03-.26-.03-.37-.11-.15-.12-.51-.34-.71-.28-.11,.03-.19,.2-.23,.34-.26,.84,.38,1.51,.4,1.54,.09,.09,.13,.2,.12,.33v.13c-.05,.71-.05,.84,.05,1.29,.03,.13,0,.27-.09,.37-4.49,5.33-4.68,5.43-4.81,5.49-.9,.45-1.97,.89-2.65,1.16,.93,.74,3.03,2.1,5.44,1.77,2.36-.31,2.77-1.25,2.83-1.66l-1.1-.58Z"/></g></g></g></g><g><path class="cls-33" d="M90.03,217.82c4.24-4.77-3.01-8.89-6.38-12.43,.61,1.4,1.25,3.26-.76,2.6-2.94-.97-7.8-5.44-8.18-8.3-1.5,.91-2.91,2.65-3.75,3.93-1.09,1.65,17.97,15.46,19.09,14.21h-.01Z"/><path class="cls-13" d="M82.87,207.98c2,.66,3.33-.16,1.04-2.32-2.03-1.93-3.34-4.04-3.62-4.51-.75-1.22-2.71-6.67-2.71-6.67l-3.91,.48s1.47,4.46,1.04,4.73c.39,2.87,5.25,7.32,8.18,8.3h-.01Z"/></g><g><path class="cls-33" d="M51.9,216.77c6.36-.53,3.95-8.51,3.95-13.4-.53,1.44-1.34,3.22-2.34,1.36-1.45-2.73-1.9-9.31-.19-11.66-1.72-.37-3.94-.09-5.43,.25-1.93,.44,2.34,23.59,4.01,23.46h0Z"/><path class="cls-13" d="M53.5,204.71c1,1.86,2.52,2.18,2.35-.96-.14-2.8,.37-5.23,.49-5.76,.3-1.4,2.64-6.7,2.64-6.7l-3.16-2.35s-2.01,4.24-2.51,4.14c-1.7,2.34-1.25,8.92,.19,11.66h0Z"/></g></g><g><g><path class="cls-21" d="M120.33,81.13s.87,1.65,1.46,2.04c.58,.39,9.52-2.72,9.23-9.91-.19-4.56-8.74-4.08-8.74-4.08l-1.94,11.95Z"/><path class="cls-5" d="M123.43,87.93h-.39c-1.46,.1-2.72-.97-2.82-2.43l-.58-8.16c-.1-1.46,.97-2.72,2.43-2.82h.39c1.46-.1,2.72,.97,2.82,2.43l1.75,7.77c.1,1.36-2.14,3.11-3.59,3.2Z"/><path class="cls-19" d="M119.94,81.72s3.5,.39,6.02-2.72c0,0-2.62,4.86-5.83,4.95l-.19-2.23Z"/><ellipse class="cls-5" cx="119.45" cy="73.75" rx="7.96" ry="4.47" transform="translate(29.34 181.4) rotate(-81.76)"/><path class="cls-5" d="M126.35,78.9c-2.04,3.2-8.45,4.27-10,1.36-1.55-2.91,1.07-8.74,3.11-12.04,2.04-3.2,4.86-3.5,6.51-.58,1.46,3.01,2.43,8.06,.39,11.27Z"/><path class="cls-21" d="M123.82,69.67s-2.04,6.8,3.2,9.32c0,0,6.8-2.43,3.5-9.91-2.91-6.6-10.1-3.3-10.1-3.3l3.4,3.88Z"/><path class="cls-21" d="M115.08,72.88s1.26-2.82,5.05-3.4l-2.53-2.23s-3.01,.19-2.53,5.63Z"/><path class="cls-1" d="M125.76,73.56c-.97-1.85-3.59-2.33-7.58-1.65-.58,.1-1.17,.1-1.75-.19-2.62-1.07-2.43-4.56-2.43-4.56-.19-2.43,1.55-3.11,3.88-3.3l6.22-.49c2.53-.19,4.66,1.46,5.73,3.3,.49,.87,.78,1.94,.68,2.91h0c.29,2.43-2.33,3.79-4.76,3.98Z"/><path class="cls-21" d="M125.96,74.34c-.87-1.85-3.5-2.23-7.38-1.65-.58,.1-1.17,.1-1.75-.1-2.62-1.07-2.43-4.47-2.43-4.47-.19-2.33,1.46-3.11,3.88-3.3l6.12-.49c3.5-.29,6.22,3.01,6.41,5.34l.1,.39c.19,2.33-2.53,4.08-4.95,4.27Z"/><path class="cls-7" d="M127.71,78.9c-.49,.78-1.55,1.07-2.33,.58s-1.07-1.55-.58-2.33c.49-.78,1.55-1.07,2.33-.58,.78,.49,1.07,1.55,.58,2.33Z"/></g><g><g><g><path class="cls-3" d="M154.24,244.71c3.02-.67-.61-4.12-3.08-4.53,.67,.33,1.5,.81,.45,1.05-1.53,.36-3.65-1-4.67-1.88-.36,.66-.44,1.58-.42,2.21,.03,.81,5.47,3.64,7.72,3.14Z"/><path class="cls-5" d="M151.55,241.64c1.07-.16,.47-1.26-.29-1.7-2.59-1.48-2.45-2.49-2.45-2.49l-1.29-.02s-.46,1.73-.57,1.92c.68,.97,2.33,2.62,4.61,2.28Z"/></g><g><path d="M111.11,243.61c-.43-3.07,3.61-2.79,5.92-3.32-.62,.4-1.38,.98-.39,1.25,1.45,.39,4.62-.11,5.54-1.16,.36,.78,.47,1.85,.47,2.6,0,.96-11.43,1.44-11.54,.63Z"/><path class="cls-5" d="M116.64,241.55c-.99-.27-1.3-.95,.2-1.22,1.34-.24,2.44-.74,2.68-.85,.63-.29,.85-1.31,.85-1.31l1.21-.05s.49,2.04,.6,2.26c-.92,1.06-4.09,1.56-5.54,1.16Z"/></g><path class="cls-35" d="M107.31,136.54c1.94-6.71,2.35-9.46,3.8-10.12,7.71-3.33,28.92-1.43,30.37-1.11,1.38,.79,3.08,6.88,4.62,15.24,3.68,20,3.72,89.55,3.84,96.62,0,.33-.23,.6-.55,.65l-2.06,.31c-.32,.05-.62-.14-.71-.44-1.32-4.17-10.11-32.35-14.95-56.66-3.33-16.72-5.41-30.96-6.29-31.47-2.31,7.31-1.86,75.46-3.31,88.71-.24,2.21-4.39,.48-4.39-1.32,0-7.9-9.79-33.94-12.43-59.64-1.82-17.7-.78-30.93,2.06-40.75Z"/><path class="cls-30" d="M107.31,136.54c1.68-5.15,2.35-9.46,3.8-10.12,2.04-.88,7.4-1.58,10.06-1.94,3.22-.43-6.3,17.39-7.29,45.38-.4,11.25,2.23,25.79,2.98,36.53,.92,13.12,2.06,19.89,2.56,25.56,.22,2.51,1.01,7.32,.87,7.28-1.86-.5-2.45-1.64-2.6-2.3-1.88-8.16-9.79-33.94-12.43-59.64-1.82-17.7-1.11-31.04,2.06-40.75Z"/></g><path class="cls-38" d="M141.43,104.32c.31-4.67,1.12-9.73-.75-13.07-1.86-3.34-13.52-4.4-13.52-4.4-4.13-.27-15.69,.96-18.92,4.01-2.77,2.62,0,15.75,1.34,23.31,.03,1.75,.47,10.72,1.15,12.44,.56,1.42,11.9,1.6,20.51,.9s9.82-1.42,10.19-4.04c.28-2.08-.12-7.71-.37-13.25,.16-2.41,.28-4.55,.37-5.9Z"/><path class="cls-5" d="M184.3,115.39s8.16-.43,12.31,.98c4.15,1.41,5.58,2.92,5.19,3.17-.38,.25-6.15-2.03-6.82-1.5-.67,.53-2.57,2.89-3.61,3.11-1,.21-3.08-1.18-4.64-1.77-1.58-.6-4.46-.32-4.46-.32l2.03-3.67Z"/><path class="cls-36" d="M185.47,117.56c-.14-1.03-.52-1.91-1.02-2.65,0,0-.28-.56-.92-1.03-2.18-2-5.72-2.78-8.52-3.41-3.98-.91-8.04-1.48-12.11-1.69-1.35-.54-2.47-1.13-3.24-1.74-4.98-3.85-17-17.21-22.25-18.31s-1.23,6.33-1.08,7.4c0,0,5.88,13.18,19.69,18.32,1.56,.65,3.15,1.25,4.76,1.76,4.67,1.54,9.39,2.85,14.16,4.07,1.19,.32,2.37,.6,3.55,.89,1.14,.29,2.3,.67,3.47,.78,2.43,.3,3.79-2.22,3.5-4.38Z"/><path class="cls-36" d="M141.77,91.25c-1.91-3.34-13.87-4.4-13.87-4.4-1.15-.09-2.87-.03-4.81,.12-.38,1.96,.26,4.82,.22,6.6,0,3.07,.51,5.99,.96,9,.57,3.88,.64,7.71,1.59,11.5,.54,2.17,1.47,4.25,2.01,6.41,.67,2.71-.16-.03,.64,2.65,.45,1.48,.86,2.95,1.28,4.43,.35-.03,1.98-.06,2.33-.09,8.83-.69,10.08-1.42,10.46-4.04,.29-2.08-.13-7.71-.38-13.25,.13-2.44,.26-4.58,.35-5.93,.29-4.61,1.15-9.67-.77-13.01Z"/><g><path class="cls-5" d="M79.36,99.92s-1.11-2.2-1.26-2.86c-.12-.66-.54-1.39-.93-1.9-.36-.51-2.56-1.69-2.68-1.45-.12,.27,0,.63,.72,1.17,.33,.27,.48,.69,.48,.69,0,0-1.14-.45-1.63-.69-.63-.33-1.17-.57-1.6-.75-.66-.3-1.2-.51-1.66-.36,0,0-.3,.54-.06,1.57,.36,1.6,1.81,1.9,3.91,3.22,1.29,.81,2.56,2.5,2.56,2.5l2.14-1.14Z"/><path class="cls-38" d="M108.85,90.55s-3.4,2.29-9.91,9.67c-4.82,5.48-7.41,8.34-8.43,9.46-1.57-2.68-3.7-4.97-5.69-7.38-1.02-1.26-1.9-2.56-2.77-3.95-.57-.9-1.51-1.48-2.59-1.17-.63,.18-1.17,.6-1.57,1.11l-2.05,1.99s8.79,23.28,19.36,18.55c7.2-3.22,16.77-17.29,16.77-17.29l-3.13-10.99Z"/></g><g><path class="cls-34" d="M127.65,83.54s-1.08,1.66-5.33,3.88l1.78,5.3s3.73-4.37,4.55-5.66l-.99-3.52Z"/><path class="cls-34" d="M119.37,84.98s2.2,2.29,3.04,2.44l-2.62,4.79s-.84-4.1-.81-4.85l.39-2.38Z"/></g></g></g></g><g><g><path class="cls-15" d="M301.86,245.95H10.05c-3.42,0-6.19-2.77-6.19-6.19s2.77-6.19,6.19-6.19H301.86c3.42,0,6.19,2.77,6.19,6.19s-2.77,6.19-6.19,6.19Z"/><g><circle class="cls-15" cx="23.4" cy="239.76" r="21.15"/><circle class="cls-9" cx="23.4" cy="239.76" r="13.35"/></g><g><circle class="cls-15" cx="111.87" cy="239.76" r="21.15"/><circle class="cls-9" cx="111.87" cy="239.76" r="13.35"/></g><g><circle class="cls-15" cx="195.56" cy="239.76" r="21.15"/><circle class="cls-9" cx="195.56" cy="239.76" r="13.35"/></g><g><circle class="cls-15" cx="314.04" cy="239.25" r="21.15"/><circle class="cls-9" cx="314.04" cy="239.25" r="13.35"/></g></g><g><g><path class="cls-23" d="M192.81,341.87c-.65-7.5,9.12-6.27,14.81-7.24-1.56,.89-3.48,2.21-1.1,2.98,3.47,1.15,11.21,.36,13.59-2.08,.78,1.93,.89,4.56,.78,6.35-.14,2.32-27.9,1.97-28.07-.02Z"/><path class="cls-7" d="M206.51,337.61c-2.38-.79-3.04-2.49,.64-2.93,3.29-.39,6.01-1.46,6.6-1.71,1.57-.62,2.24-3.22,2.24-3.22l2.84-1.58s1.04,6.79,1.26,7.35c-2.39,2.44-10.12,3.23-13.59,2.08v.02Z"/></g><g><path class="cls-23" d="M295.39,342.94c-5.02-5.6,3.51-10.5,7.45-14.69-.71,1.66-1.45,3.86,.91,3.05,3.46-1.18,9.17-6.45,9.6-9.85,1.78,1.08,3.44,3.11,4.46,4.62,1.29,1.93-21.11,18.34-22.42,16.88Z"/><path class="cls-7" d="M303.77,331.32c-2.36,.79-3.92-.15-1.24-2.72,2.39-2.3,3.92-4.79,4.25-5.33,.89-1.45-2.94-5.7-2.94-5.7l1.82-2.76s7.2,6.37,7.72,6.68c-.44,3.38-6.14,8.67-9.6,9.85l-.02-.02Z"/></g></g><path class="cls-42" d="M241.87,197.95c-5.69,15.2-21.55,69.23-22.69,77.16-1.14,7.93-7.96,53.2-7.58,55.84,9.86,1.98,13.88,1.67,13.88,1.67,1.14-6.61,4.44-41.4,9.27-52.64,4.83-11.23,19.16-44.2,19.16-44.2,3.18,14.54,4.78,31.75,10.81,47.04,9.38,19.87,35.2,39.86,35.2,39.86,7.2-4.3,11.75-8.26,10.61-8.59-5.69-7.27-30.32-28.42-31.46-37.01-1.14-8.59,1.35-50.98-1.94-71.89-.34-2.16-32.02-6.46-32.02-6.46l-3.24-.79Z"/><path class="cls-31" d="M248.69,244.79c3-6.26,5.21-10.83,5.21-10.83-.86-4.37-1.49-9.49-1.49-9.49,0,0-3.13,12.85-3.72,20.32Z"/><path class="cls-31" d="M278.89,232.83c-3.9-3.08-14.48-14.34-18.01-25.96l16.72-.13c.87,7.38,1.2,16.69,1.29,26.1Z"/><path class="cls-7" d="M250.44,145.73l7.09-3.38c-.51-3.44-5.36-10.03-6.42-13.01-1.16-3.27-5.8-5.67-5.8-5.67l-1.31,7.5,.26,.57s1.57,5.82,.99,8.69c-.33,1.64,.41,3.86-.82,6.5-.92,1.98,6.01-1.21,6.01-1.21Z"/><g><g><path class="cls-20" d="M300.4,70.27l-7.65,7.62-7.17,7.14-3.33-3.41-6.86-7.02h0l7.17-7.14,7.65-7.62c2.54-2.53,6.63-2.5,9.13,.06l1.12,1.15c.41,.42,.75,.88,1.02,1.36,1.41,2.5,1.04,5.74-1.08,7.86Z"/><polygon class="cls-11" points="292.75 77.89 285.58 85.03 198.13 172.14 190.91 179.34 136.82 233.22 132.57 235.44 122.25 240.84 115.25 244.51 115.05 244.61 115.15 244.41 118.99 237.18 126.63 222.79 126.81 222.61 205.08 144.64 210.83 138.91 275.39 74.6 282.56 67.46 289.41 74.47 292.75 77.89"/><polygon class="cls-2" points="292.75 77.89 285.58 85.03 198.13 172.14 190.91 179.34 136.82 233.22 132.57 235.44 122.25 240.84 115.25 244.51 115.05 244.61 115.15 244.41 118.99 237.18 126.63 222.79 126.81 222.61 205.08 144.64 210.83 138.91 275.39 74.6 282.56 67.46 289.41 74.47 292.75 77.89"/><path class="cls-7" d="M136.82,233.22l-4.45,2.54-9.82,5.61-5.8,3.32c-.55,.31-1.12,.18-1.5-.17-.03-.03-.07-.06-.09-.1-.35-.39-.47-.97-.15-1.52l3.35-5.8,8.27-14.3h0l.18-.18c2.21,1.19,3.16,.17,3.9,1.1,.95,1.18-.97,3.96,.18,5.13,1.15,1.18,1.85-.59,2.99,.58,1.12,1.14,.45,1.85,1.09,2.56,.01,.01,.03,.03,.04,.04,.7,.72,.24-.44,1.81,1.2Z"/><path class="cls-29" d="M122.55,241.37l-7.34,4.19c-.72,.41-1.52-.4-1.1-1.13l4.24-7.34c.05-.09,.16-.13,.26-.09,1.7,.65,.94,2,1.82,2.73,.43,.35,1.27,.83,2.11,1.26,.15,.08,.15,.29,0,.37Z"/></g><path class="cls-25" d="M300.4,70.27l-7.65,7.62-7.17,7.14-87.44,87.11-7.23,7.2-54.09,53.88-4.45,2.54c.07-.1,.13-.21,.2-.32,.67-1.05,1.48-2.22,2.4-3.46,9.85-13.35,32.71-36.37,36.36-39.79,3.06-2.87,72.44-72.14,110.92-110.57,2.53-2.53,4.93-4.92,7.16-7.15,4.89-4.89,9.01-9,12.07-12.06,1.41,2.5,1.04,5.74-1.08,7.86Z"/></g><path class="cls-26" d="M244.52,133s.95,3.75,.85,6.08c4.99,1.33,6.55-4.39,5.16-5.51-.87-.7-3.85-2.16-3.85-2.16l-2.15,1.59Z"/><path class="cls-20" d="M255.28,137.33c-3.24-.92-3.56,4.66-6.82,4.93-1.72,.14-1.34-.64-2.16-1.47-.5-.51-.97-1.08-1.76-.23-16.12,17.24,.67,60.71-1.39,63.74-1.68,2.48,11.97,7.9,20.54,5.72,11.75-2.99,11.04-16.29,10.7-18.83s-7.91-45.72-7.91-45.72c0,0-5.95-3.28-11.19-8.14Z"/><path class="cls-4" d="M206.72,163.63c4.62,5.29,10.58,10.74,15.73,11.05,5.73,.34,14.61-14.8,14.61-14.24,.02,2.41-.06,12.06-.52,15.27-.38,2.59-.82,5.08-1.02,6.94-.51,4.76-4.22,24.79,1.42,30.9,3.59,3.88,6.56,3.49,8.7,1.44,3.68-3.51,0-19.4,1.41-34.97,1.09-12.03-4.28-19.11-3.05-29.05,.93-7.52,.53-10.41,.53-10.41-18.14,7.25-18.76,23.01-23.02,22.99-2.68-.01-5.57-3.01-8.2-6.48l-6.58,6.56Z"/><path class="cls-6" d="M206.72,163.63c4.62,5.29,10.58,10.74,15.73,11.05,5.73,.34,14.61-14.8,14.61-14.24,.02,2.41-.06,12.06-.52,15.27-.38,2.59-.82,5.08-1.02,6.94-.51,4.76-4.22,24.79,1.42,30.9,3.59,3.88,6.56,3.49,8.7,1.44,3.68-3.51,0-19.4,1.41-34.97,1.09-12.03-4.28-19.11-3.05-29.05,.93-7.52,.53-10.41,.53-10.41-18.14,7.25-18.76,23.01-23.02,22.99-2.68-.01-5.57-3.01-8.2-6.48l-6.58,6.56Z"/><path class="cls-6" d="M278.89,214.77c-5.14,3.35-11.97,3.45-16.5-1.51-3.75-4.12,.04-9.44-2.73-19.04-1.4-4.85-3.51-13.2-4.26-19.66-.07-.64-.13-1.25-.18-1.85-.39-4.99-.53-10.39-.54-15.45,0-2.3,.01-4.53,.05-6.63,.02-1.34,.06-2.63,.09-3.84,.13-4.48,.33-7.95,.44-9.47,0,0,8.16,.21,14.87,7.49,.76,.83,1.45,2.08,2.05,3.6,.5,1.26,.94,2.71,1.32,4.24,.84,3.42,1.37,7.28,1.52,10.54,.1,2.12,.15,3.83,.18,5.27,.06,2.94-.01,4.78-.1,6.8-.04,.8-.08,1.63-.11,2.57h0c-.04,1.06-.08,2.26-.11,3.71-.04,2.37,.73,6.26,1.68,10.57h0c2.09,9.44,5.07,20.87,2.32,22.67Z"/><path class="cls-28" d="M181.91,188.35l7.23-7.2-7.15-3.32c-.06,.23-.12,.47-.18,.7-1.07,4.48-.46,7.94,.1,9.82Z"/><path class="cls-27" d="M269.75,154.45c.03,1.97-12.9,20.2-13.76,24.08-.07-.64-.72-5.22-.76-5.82-.39-4.99-.53-10.39-.54-15.45l15.06-2.82Z"/><path class="cls-28" d="M196.08,153.65c1.06,.63,2.49,1.26,3.85,1.16,1.85-.14,5.88-4.45,5.94-9.37l-4.04,2.48-5.75,5.73Z"/><g><path class="cls-7" d="M238.02,122.5c.35,2.9-1.59,8.98,.33,8.59,1.91-.39,.74,6.13,2.79,5.79,4.97-.83,10-5.12,10.15-7.65,.14-2.53-1.58-9.16-1.58-9.16l-11.68,2.44Z"/><path class="cls-7" d="M251.25,129.55c-.39,1.95-3.28,4.71-6.74,6.28-1.09,.49-2.23,.86-3.37,1.06-1.21,.2-1.3-1.99-1.56-3.73-.18-1.21-.45-2.21-1.23-2.05-1.03,.21-.94-1.45-.7-3.48,.96-.85,2.3-1.78,3.85-2.73,2.46-1.51,5.46-3.07,8.29-4.5,.34,1.35,1.63,6.65,1.5,8.84,0,.1-.02,.21-.04,.32Z"/><path class="cls-24" d="M243.67,124.22c-1.52,.5-1.49,.88-2.69,.57-1.2-.31,.37-2.21-1.73-2.13-2.11,.07-4.36,.4-5.06-1.9-1.01-3.33,2.09-3.4,4.01-3.38,1.24,.01,1-2.64,3.39-3.01,1.88-.29,1.89,.85,3.58,.67,1.02-.11,2.63-2.16,4.45-1.27,3.36,1.67,1.51,4.92,4.42,6.84,3.39,2.23-1.89,9.53-2.8,8.96-1.05-.67-.35-3.83-1.39-4.33-1.56-.76-1.49,.43-2.39,1.73-.97,1.38-3.18,1.9-2.2-.59,.97-2.49-.21-2.58-1.59-2.13Z"/></g><g><path class="cls-7" d="M193.79,180c-1.14-.18-.73-2.37-1.55-2.03-1.54,.63-2.86,1.68-5.02,.32-1.14-.72-4.47-3.05-5.24-.46-1.8,6.06,1.62,9.47,6.79,8.19,4.02-1,6.75,1.34,10.25,1.31,3.5-.03-1.15-6.79-1.15-6.79,0,0-1.91-.19-4.08-.54Z"/><path class="cls-6" d="M258.21,146.2c-25.18,25.14-28.75,28.49-33.48,30.15-4.73,1.67-30.81,2.43-30.81,2.43,0,0,.3,8.84,1.77,9.32,1.47,.48,31.11,.66,33.71-.77,2.04-1.13,26.85-19.59,36.07-28.02,2.52-2.31,3.14-5.14,3.59-5.77,2.09-2.9-.8-8.61-5.51-7.3s-5.34-.04-5.34-.04Z"/></g><g><path class="cls-17" d="M273.52,152.65c-4.9,.53-8.57,1.18-12.45,.89-1.33-.1-3.46-1.2-4.63-1.8-.59-.3-1.15-.68-1.69-1.11-3.36-2.69-5.67-7.39-5.95-7.21-.41,.27-1.61-1.95-.31-1.87,.98,.06,1.08,1.15,1.88,1.88,1.21,1.1,2.72,2.34,4.47,3.36,.53,.31,1.08,.6,1.64,.86,1.31,.6,2.72,1.06,4.23,1.25,2.02,.26,7.92,.56,11.49-.49,.5,1.26,.94,2.71,1.32,4.24Z"/><path class="cls-16" d="M246.83,142.3c.06-.69,.56-1.81,2.02-1.72,1.09,.07,1.17,.52,2.07,1.34,2.7,2.46,6.73,5.5,11.58,6.13,4.84,.63,16.05-5.59,23.2-3.87,7.15,1.72,9.21,8.27,19.55,10.14,10.34,1.87,21.58-2.33,24.63-1.74,3.05,.59,4.89,1.31,4.79,2.53-.1,1.22-1.66,3.22-3.83,4.04-2.17,.82-21.13,1.75-26.11,.97-8.14-1.27-15.01-8.85-20.26-9.42-5.25-.58-16.37,2.25-22.53,1.78-6.87-.52-12.3-8.72-12.76-8.42-.46,.3-.88,.59-1.76,.34-.6-.17-.63-1.4-.58-2.09Z"/></g><path class="cls-7" d="M205.19,144.48c-.53-1.32-.77-1.16-3.53,.05-2.75,1.2-4.63,2.83-4.72,5.32-.09,2.49,3.03,5.46,5.5,2.39s4.12-5.84,3.43-6.8l-.68-.96Z"/><path class="cls-37" d="M17.38,237.15c-1.61,4.23,2.97,11.34,5.36,9.17,1.42-1.29,11.13-12.72,20.05-20.53,9.26-8.1,19.98-11.48,9.01-11.32-2.91,.04-7.28,3.14-11.04,7.69s-17.01,18.62-17.96,18.42c-1.36-.3-4.47-5.95-5.42-3.43Z"/><g><g><path class="cls-40" d="M345.71,191.36c-7.17,.13-8.98,6.53-17.21,6.57-1.32,0-6.21,1.31-8.15,2-.17,.06-.33,.12-.49,.17-.1,.03-.2,.06-.29,.09-1.21,.35-2.15,.4-2.38-.35-.07-.2-.08-.46-.04-.78,.49-3.49,2.8-26.15,2.9-27.22v-.04s.08,.04,.11,.05c.57,.27,1.12,.53,1.64,.79,.09,.04,.18,.09,.27,.13,.51,.25,.99,.49,1.45,.73,7.61,3.89,9.2,5.79,14.5,5.89,4.01,.07,5.5-.88,9.49-.56,5.15,.41,11.25,6.18,12.92,9.54,2.35,4.74-3.05,2.79-14.72,3Z"/><path class="cls-41" d="M323.52,173.49c-1.75,9.32-2.86,22.42-3.17,26.43-.17,.06-.33,.12-.49,.17-.1,.03-.2,.06-.29,.09-1.21,.35-2.15,.4-2.38-.35-.07-.2-.08-.46-.04-.78,.49-3.49,2.8-26.15,2.9-27.22v-.04s.08,.04,.11,.05c.57,.27,1.12,.53,1.64,.79,.09,.04,.18,.09,.27,.13,.51,.25,.99,.49,1.45,.73Z"/></g><path class="cls-31" d="M313.89,240.74h-.02c-.6-.01-1.99-.68-1.97-.98,1.97-37.76,7.1-67.28,7.07-67.71-.09-1.3,1.47-1.32,2.06-1.28,.6,.03,1.03,.31,.97,.61-.08,.42-5.05,31.12-7.01,68.84-.02,.3-.5,.53-1.09,.52Z"/></g></g></svg>